<svg version="1.1" id="Layer_1" xmlns="http://www.w3.org/2000/svg" xmlns:xlink="http://www.w3.org/1999/xlink" x="0px" y="0px"
	 width="100%" viewBox="0 0 396 360" enable-background="new 0 0 396 360" xml:space="preserve">
<path fill="#010101" opacity="1.000000" stroke="none" 
	d="
M222.000000,361.000000 
	C148.000015,361.000000 74.500023,361.000000 1.000030,361.000000 
	C1.000020,241.000031 1.000020,121.000069 1.000010,1.000078 
	C132.999939,1.000052 264.999878,1.000052 396.999878,1.000026 
	C396.999908,120.999916 396.999908,240.999832 396.999939,360.999878 
	C338.833344,361.000000 280.666656,361.000000 222.000000,361.000000 
M280.986847,58.074829 
	C274.657379,58.329857 268.327881,58.584888 261.998413,58.839916 
	C262.015839,59.263172 262.033264,59.686424 262.050720,60.109680 
	C268.718842,60.109680 275.386993,60.109680 282.531830,60.629219 
	C283.661346,60.467937 284.790863,60.306660 285.920410,60.145382 
	C285.900696,59.604706 285.880981,59.064026 285.861298,58.523346 
	C284.543671,58.363297 283.226074,58.203243 280.986847,58.074829 
M126.278427,295.097931 
	C112.420601,299.906403 98.173248,302.989380 83.534943,303.710846 
	C69.969490,304.379425 56.694561,302.994659 44.923367,294.553589 
	C44.290668,294.337799 43.657970,294.122009 42.381001,293.750092 
	C39.891014,291.236389 37.401031,288.722687 34.944450,285.436859 
	C34.211735,284.633972 33.479015,283.831116 32.212963,282.658600 
	C31.464918,281.131958 30.716875,279.605286 30.064926,277.349060 
	C29.384535,274.725311 28.704144,272.101562 28.023752,269.477814 
	C27.197567,269.744354 26.371380,270.010895 25.545195,270.277435 
	C26.393789,272.862915 27.242386,275.448425 28.152252,278.746063 
	C33.912956,293.595978 45.360882,301.666992 60.422058,304.599243 
	C68.026810,306.079803 75.997833,306.937408 83.700287,306.449921 
	C127.855843,303.655334 166.529205,285.735199 203.726959,261.997070 
	C210.291260,257.490143 216.718491,252.761139 223.486313,248.584000 
	C226.252563,246.876633 229.740158,245.509598 232.926697,245.450516 
	C249.506714,245.143188 266.095459,245.307312 282.928772,245.307312 
	C282.928772,236.733017 282.928772,228.523911 282.928772,219.757538 
	C274.932281,219.757538 267.110413,219.757538 258.797150,219.757538 
	C260.908936,217.534744 262.495605,215.864655 264.673035,214.016327 
	C265.178040,213.391525 265.683014,212.766724 266.055206,212.052963 
	C266.055206,212.052963 266.148895,212.182449 266.785431,211.964066 
	C285.667633,193.556747 302.701874,173.680740 315.166779,150.262772 
	C323.520752,134.568008 329.677795,118.211807 328.998810,99.996216 
	C328.224670,79.228539 313.043976,62.593468 292.824127,59.962551 
	C291.376587,60.107395 289.929016,60.252239 288.481476,60.397083 
	C289.356079,60.917946 290.230713,61.438808 291.856903,62.044884 
	C310.960602,67.300812 321.820953,79.358566 323.693054,98.298630 
	C324.890289,110.411064 322.189728,122.018524 316.587982,133.117874 
	C316.403198,134.081818 316.218384,135.045761 316.008667,136.730255 
	C307.544098,156.082962 295.667816,173.199371 280.991058,188.831116 
	C280.086731,187.275620 279.182404,185.720123 278.607391,183.606094 
	C290.161469,169.625381 300.803955,155.027405 308.463531,138.484985 
	C315.603058,123.065666 320.445343,107.238297 316.466034,89.665955 
	C316.025635,89.107903 315.585236,88.549843 314.801025,87.424896 
	C314.176208,86.086548 313.551422,84.748199 312.962067,82.593048 
	C312.194611,81.775032 311.427185,80.957008 310.091766,79.821129 
	C304.859802,73.621956 298.081421,69.959854 290.346436,67.968483 
	C275.804169,64.224586 261.249542,65.442841 246.802002,68.400002 
	C219.068558,74.076561 193.682266,85.691147 169.336807,99.914459 
	C171.194763,99.746986 172.978027,99.311287 174.641907,98.597366 
	C184.867035,94.210075 194.859970,89.183990 205.317566,85.457680 
	C223.708328,78.904587 242.471451,74.060272 262.389008,76.992020 
	C281.639252,79.825531 292.402435,94.295448 289.467773,113.543610 
	C286.681000,131.821457 278.095642,147.515717 267.368866,162.016327 
	C232.742065,208.825287 187.909760,243.048340 135.221786,267.151703 
	C114.073761,276.826385 92.092155,283.825165 68.354553,283.024841 
	C48.559040,282.357422 38.771515,274.959412 33.025936,256.499542 
	C32.987991,260.542816 32.765507,264.679230 33.615135,268.582245 
	C37.211758,285.104492 50.590611,295.474091 68.802109,297.152191 
	C82.775238,298.439758 96.320175,296.379303 110.121628,294.154724 
	C110.750008,293.810669 111.378395,293.466614 112.726250,292.836823 
	C116.355080,291.743347 120.109444,290.951874 123.591309,289.504791 
	C139.772171,282.779968 155.877579,275.873596 172.365692,269.478577 
	C172.904709,268.970367 173.443726,268.462189 174.425400,267.381317 
	C176.386383,266.937103 178.347382,266.492889 180.769516,265.866180 
	C180.603394,265.892975 180.437271,265.919739 179.678696,265.111084 
	C192.798630,256.451202 205.918549,247.791351 219.444229,239.549026 
	C219.928497,238.949539 220.412750,238.350067 221.168518,237.199661 
	C222.356247,236.428802 223.543976,235.657928 225.557892,234.931808 
	C226.292358,234.083344 227.026810,233.234879 228.173111,231.904770 
	C242.347748,218.887573 256.522369,205.870361 271.358795,193.158005 
	C272.723083,194.155380 274.087402,195.152756 275.131500,196.760315 
	C271.368042,200.817673 267.604553,204.875031 263.235260,209.171722 
	C261.129089,211.103348 259.022919,213.034973 256.322479,214.700806 
	C255.372482,214.931107 254.422501,215.161392 253.472504,215.391678 
	C253.821152,216.002716 254.169785,216.613770 254.191727,217.797348 
	C253.134369,218.882797 252.077026,219.968246 250.412445,221.228760 
	C249.546249,222.126038 248.680054,223.023300 247.177246,224.148361 
	C245.406525,225.395065 243.635803,226.641769 241.107544,227.543411 
	C241.054214,227.993240 241.000885,228.443054 240.866058,229.561569 
	C239.615768,230.479736 238.365479,231.397903 236.783066,231.756348 
	C236.195541,232.521637 235.608017,233.286942 234.716995,234.648987 
	C230.904861,237.471680 227.092728,240.294388 222.466919,243.063843 
	C221.709137,243.879837 220.951355,244.695847 219.807175,246.015747 
	C214.194199,249.985550 208.581238,253.955338 202.270966,258.041260 
	C192.992615,263.499542 184.034103,269.625153 174.361649,274.261261 
	C159.500671,281.384338 144.149124,287.483948 128.688416,293.562988 
	C128.122040,293.981110 127.555656,294.399231 126.278427,295.097931 
M173.284409,239.777191 
	C182.336472,233.576324 191.388550,227.375473 200.440628,221.174606 
	C200.218918,220.725571 199.997208,220.276550 199.775513,219.827515 
	C188.534637,219.827515 177.293747,219.827515 166.193268,219.827515 
	C166.193268,213.321945 166.193268,207.233337 166.193268,200.728806 
	C178.707199,200.728806 190.945984,200.728806 203.218048,200.728806 
	C203.218048,192.083008 203.218048,183.865021 203.218048,175.197174 
	C190.618240,175.197174 178.390762,175.197174 166.249451,175.197174 
	C166.249451,169.837189 166.249451,164.943512 166.249451,159.583206 
	C179.978958,159.583206 193.374954,159.583206 206.632629,159.583206 
	C206.632629,151.005157 206.632629,142.908615 206.632629,134.603943 
	C183.605560,134.603943 160.862671,134.603943 137.894272,134.603943 
	C137.894272,171.552399 137.894272,208.267914 137.894272,245.320343 
	C143.633636,245.320343 149.131271,244.962418 154.562363,245.410736 
	C161.387802,245.974136 167.380005,244.498322 173.284409,239.777191 
M243.021210,139.683289 
	C243.021210,138.067261 243.021210,136.451248 243.021210,134.707520 
	C233.359421,134.707520 224.164261,134.707520 214.943298,134.707520 
	C214.943298,159.522156 214.943298,184.003693 214.943298,209.720825 
	C223.827286,201.103531 232.054779,193.379044 239.914993,185.297348 
	C241.625793,183.538330 242.828796,180.519638 242.887329,178.048462 
	C243.182510,165.585526 243.021683,153.111786 243.021210,139.683289 
M26.754423,264.023987 
	C26.600304,263.181732 26.446184,262.339508 26.292065,261.497253 
	C25.830725,261.671875 25.369383,261.846527 24.908041,262.021149 
	C25.376465,262.845337 25.844887,263.669495 26.754423,264.023987 
M252.198868,60.407001 
	C251.090408,60.716938 249.981949,61.026875 248.873474,61.336811 
	C248.977661,61.638279 249.081833,61.939747 249.186005,62.241215 
	C250.317902,61.791782 251.449799,61.342350 252.198868,60.407001 
z"/>
<path fill="#FBFBFB" opacity="1.000000" stroke="none" 
	d="
M172.009995,269.032196 
	C155.877579,275.873596 139.772171,282.779968 123.591309,289.504791 
	C120.109444,290.951874 116.355080,291.743347 112.080276,292.917969 
	C110.912651,293.199188 110.391006,293.399292 109.869362,293.599396 
	C96.320175,296.379303 82.775238,298.439758 68.802109,297.152191 
	C50.590611,295.474091 37.211758,285.104492 33.615135,268.582245 
	C32.765507,264.679230 32.987991,260.542816 33.025936,256.499542 
	C38.771515,274.959412 48.559040,282.357422 68.354553,283.024841 
	C92.092155,283.825165 114.073761,276.826385 135.221786,267.151703 
	C187.909760,243.048340 232.742065,208.825287 267.368866,162.016327 
	C278.095642,147.515717 286.681000,131.821457 289.467773,113.543610 
	C292.402435,94.295448 281.639252,79.825531 262.389008,76.992020 
	C242.471451,74.060272 223.708328,78.904587 205.317566,85.457680 
	C194.859970,89.183990 184.867035,94.210075 174.641907,98.597366 
	C172.978027,99.311287 171.194763,99.746986 169.336807,99.914459 
	C193.682266,85.691147 219.068558,74.076561 246.802002,68.400002 
	C261.249542,65.442841 275.804169,64.224586 290.346436,67.968483 
	C298.081421,69.959854 304.859802,73.621956 310.480469,80.303635 
	C311.554993,81.660713 312.240784,82.535286 312.926636,83.409851 
	C313.551422,84.748199 314.176208,86.086548 314.941498,87.997543 
	C315.395233,89.044525 315.708496,89.518860 316.021759,89.993202 
	C320.445343,107.238297 315.603058,123.065666 308.463531,138.484985 
	C300.803955,155.027405 290.161469,169.625381 278.179688,184.088287 
	C275.400330,187.331375 273.048676,190.092270 270.696991,192.853149 
	C256.522369,205.870361 242.347748,218.887573 227.660858,232.281403 
	C226.342987,233.401047 225.537338,234.144043 224.731689,234.887054 
	C223.543976,235.657928 222.356247,236.428802 220.742371,237.553650 
	C219.890320,238.315598 219.464386,238.723526 219.038483,239.131470 
	C205.918549,247.791351 192.798630,256.451202 180.010986,265.548737 
	C180.343277,265.986389 180.308380,266.048676 180.308380,266.048645 
	C178.347382,266.492889 176.386383,266.937103 173.904114,267.675232 
	C172.925217,268.323486 172.467606,268.677856 172.009995,269.032196 
z"/>
<path fill="#FBFBFB" opacity="1.000000" stroke="none" 
	d="
M172.960678,239.942490 
	C167.380005,244.498322 161.387802,245.974136 154.562363,245.410736 
	C149.131271,244.962418 143.633636,245.320343 137.894272,245.320343 
	C137.894272,208.267914 137.894272,171.552399 137.894272,134.603943 
	C160.862671,134.603943 183.605560,134.603943 206.632629,134.603943 
	C206.632629,142.908615 206.632629,151.005157 206.632629,159.583206 
	C193.374954,159.583206 179.978958,159.583206 166.249451,159.583206 
	C166.249451,164.943512 166.249451,169.837189 166.249451,175.197174 
	C178.390762,175.197174 190.618240,175.197174 203.218048,175.197174 
	C203.218048,183.865021 203.218048,192.083008 203.218048,200.728806 
	C190.945984,200.728806 178.707199,200.728806 166.193268,200.728806 
	C166.193268,207.233337 166.193268,213.321945 166.193268,219.827515 
	C177.293747,219.827515 188.534637,219.827515 199.775513,219.827515 
	C199.997208,220.276550 200.218918,220.725571 200.440628,221.174606 
	C191.388550,227.375473 182.336472,233.576324 172.960678,239.942490 
z"/>
<path fill="#FCFCFC" opacity="1.000000" stroke="none" 
	d="
M243.021027,140.162567 
	C243.021683,153.111786 243.182510,165.585526 242.887329,178.048462 
	C242.828796,180.519638 241.625793,183.538330 239.914993,185.297348 
	C232.054779,193.379044 223.827286,201.103531 214.943298,209.720825 
	C214.943298,184.003693 214.943298,159.522156 214.943298,134.707520 
	C224.164261,134.707520 233.359421,134.707520 243.021210,134.707520 
	C243.021210,136.451248 243.021210,138.067261 243.021027,140.162567 
z"/>
<path fill="#FEFEFE" opacity="1.000000" stroke="none" 
	d="
M237.115189,232.316071 
	C238.365479,231.397903 239.615768,230.479736 241.067383,229.070160 
	C241.490845,228.368820 241.689621,228.138733 241.865067,227.888489 
	C243.635803,226.641769 245.406525,225.395065 247.875717,224.053543 
	C249.389359,222.990387 250.204529,222.022049 251.019684,221.053711 
	C252.077026,219.968246 253.134369,218.882797 254.625214,217.418793 
	C255.678055,216.349030 256.297394,215.657822 256.916748,214.966614 
	C259.022919,213.034973 261.129089,211.103348 263.907623,209.126068 
	C265.102966,210.114410 265.625916,211.148438 266.148895,212.182449 
	C266.148895,212.182449 266.055206,212.052963 265.770569,212.098816 
	C265.018097,212.827972 264.550201,213.511276 264.082306,214.194580 
	C262.495605,215.864655 260.908936,217.534744 258.797150,219.757538 
	C267.110413,219.757538 274.932281,219.757538 282.928772,219.757538 
	C282.928772,228.523911 282.928772,236.733017 282.928772,245.307312 
	C266.095459,245.307312 249.506714,245.143188 232.926697,245.450516 
	C229.740158,245.509598 226.252563,246.876633 223.486313,248.584000 
	C216.718491,252.761139 210.291260,257.490143 203.365662,261.656677 
	C202.992325,260.185913 202.980301,259.055511 202.968262,257.925140 
	C208.581238,253.955338 214.194199,249.985550 220.312317,245.644897 
	C221.638489,244.555069 222.459534,243.836060 223.280609,243.117065 
	C227.092728,240.294388 230.904861,237.471680 235.151627,234.298492 
	C236.095901,233.404037 236.605545,232.860046 237.115189,232.316071 
z"/>
<path fill="#F0F0F0" opacity="1.000000" stroke="none" 
	d="
M266.467163,212.073257 
	C265.625916,211.148438 265.102966,210.114410 264.210541,209.006409 
	C267.604553,204.875031 271.368042,200.817673 275.568359,196.301147 
	C277.922852,193.555634 279.840515,191.269287 281.758179,188.982941 
	C295.667816,173.199371 307.544098,156.082962 316.277527,136.166183 
	C316.789612,134.772537 317.032867,133.942963 317.276123,133.113403 
	C322.189728,122.018524 324.890289,110.411064 323.693054,98.298630 
	C321.820953,79.358566 310.960602,67.300812 291.506714,61.664894 
	C291.777344,61.060410 292.398102,60.835918 293.018890,60.611420 
	C313.043976,62.593468 328.224670,79.228539 328.998810,99.996216 
	C329.677795,118.211807 323.520752,134.568008 315.166779,150.262772 
	C302.701874,173.680740 285.667633,193.556747 266.467163,212.073257 
z"/>
<path fill="#EAEAEA" opacity="1.000000" stroke="none" 
	d="
M202.619614,257.983215 
	C202.980301,259.055511 202.992325,260.185913 203.025391,261.739685 
	C166.529205,285.735199 127.855843,303.655334 83.700287,306.449921 
	C75.997833,306.937408 68.026810,306.079803 60.422058,304.599243 
	C45.360882,301.666992 33.912956,293.595978 28.435644,278.361389 
	C29.135635,278.010651 29.552237,278.044647 29.968834,278.078613 
	C30.716875,279.605286 31.464918,281.131958 32.549507,283.169800 
	C33.561050,284.523651 34.236050,285.366302 34.911049,286.208984 
	C37.401031,288.722687 39.891014,291.236389 42.854179,294.088196 
	C43.864471,294.667816 44.401588,294.909271 44.938705,295.150726 
	C56.694561,302.994659 69.969490,304.379425 83.534943,303.710846 
	C98.173248,302.989380 112.420601,299.906403 126.922684,295.000488 
	C128.046539,294.607941 128.526123,294.312866 129.005737,294.017822 
	C144.149124,287.483948 159.500671,281.384338 174.361649,274.261261 
	C184.034103,269.625153 192.992615,263.499542 202.619614,257.983215 
z"/>
<path fill="#0C0C0C" opacity="1.000000" stroke="none" 
	d="
M281.374634,188.907028 
	C279.840515,191.269287 277.922852,193.555634 275.728455,195.996033 
	C274.087402,195.152756 272.723083,194.155380 271.027893,193.005585 
	C273.048676,190.092270 275.400330,187.331375 278.015045,184.367554 
	C279.182404,185.720123 280.086731,187.275620 281.374634,188.907028 
z"/>
<path fill="#595959" opacity="1.000000" stroke="none" 
	d="
M282.055115,60.109680 
	C275.386993,60.109680 268.718842,60.109680 262.050720,60.109680 
	C262.033264,59.686424 262.015839,59.263172 261.998413,58.839916 
	C268.327881,58.584888 274.657379,58.329857 281.511749,58.399040 
	C282.042816,59.185390 282.048981,59.647537 282.055115,60.109680 
z"/>
<path fill="#0C0C0C" opacity="1.000000" stroke="none" 
	d="
M30.016880,277.713837 
	C29.552237,278.044647 29.135635,278.010651 28.405010,278.005310 
	C27.242386,275.448425 26.393789,272.862915 25.545195,270.277435 
	C26.371380,270.010895 27.197567,269.744354 28.023752,269.477814 
	C28.704144,272.101562 29.384535,274.725311 30.016880,277.713837 
z"/>
<path fill="#0C0C0C" opacity="1.000000" stroke="none" 
	d="
M282.293488,60.369450 
	C282.048981,59.647537 282.042816,59.185390 281.972534,58.383217 
	C283.226074,58.203243 284.543671,58.363297 285.861298,58.523346 
	C285.880981,59.064026 285.900696,59.604706 285.920410,60.145382 
	C284.790863,60.306660 283.661346,60.467937 282.293488,60.369450 
z"/>
<path fill="#0C0C0C" opacity="1.000000" stroke="none" 
	d="
M292.921509,60.286987 
	C292.398102,60.835918 291.777344,61.060410 291.130920,61.622288 
	C290.230713,61.438808 289.356079,60.917946 288.481476,60.397079 
	C289.929016,60.252239 291.376587,60.107395 292.921509,60.286987 
z"/>
<path fill="#0C0C0C" opacity="1.000000" stroke="none" 
	d="
M256.619629,214.833710 
	C256.297394,215.657822 255.678055,216.349030 254.788574,217.132538 
	C254.169785,216.613770 253.821152,216.002716 253.472504,215.391678 
	C254.422501,215.161392 255.372482,214.931107 256.619629,214.833710 
z"/>
<path fill="#0C0C0C" opacity="1.000000" stroke="none" 
	d="
M26.533867,264.258850 
	C25.844887,263.669495 25.376465,262.845337 24.908041,262.021149 
	C25.369383,261.846527 25.830725,261.671875 26.292065,261.497253 
	C26.446184,262.339508 26.600304,263.181732 26.533867,264.258850 
z"/>
<path fill="#0C0C0C" opacity="1.000000" stroke="none" 
	d="
M252.390289,60.649963 
	C251.449799,61.342350 250.317902,61.791782 249.186005,62.241215 
	C249.081833,61.939747 248.977661,61.638279 248.873474,61.336811 
	C249.981949,61.026875 251.090408,60.716938 252.390289,60.649963 
z"/>
<path fill="#0C0C0C" opacity="1.000000" stroke="none" 
	d="
M316.932037,133.115631 
	C317.032867,133.942963 316.789612,134.772537 316.289978,135.805908 
	C316.218384,135.045761 316.403198,134.081818 316.932037,133.115631 
z"/>
<path fill="#F0F0F0" opacity="1.000000" stroke="none" 
	d="
M250.716064,221.141235 
	C250.204529,222.022049 249.389359,222.990387 248.194016,223.939636 
	C248.680054,223.023300 249.546249,222.126038 250.716064,221.141235 
z"/>
<path fill="#0C0C0C" opacity="1.000000" stroke="none" 
	d="
M236.949127,232.036209 
	C236.605545,232.860046 236.095901,233.404037 235.303375,234.000122 
	C235.608017,233.286942 236.195541,232.521637 236.949127,232.036209 
z"/>
<path fill="#0C0C0C" opacity="1.000000" stroke="none" 
	d="
M225.144791,234.909424 
	C225.537338,234.144043 226.342987,233.401047 227.454956,232.522217 
	C227.026810,233.234879 226.292358,234.083344 225.144791,234.909424 
z"/>
<path fill="#0C0C0C" opacity="1.000000" stroke="none" 
	d="
M34.927750,285.822937 
	C34.236050,285.366302 33.561050,284.523651 32.816177,283.354614 
	C33.479015,283.831116 34.211735,284.633972 34.927750,285.822937 
z"/>
<path fill="#0C0C0C" opacity="1.000000" stroke="none" 
	d="
M222.873749,243.090454 
	C222.459534,243.836060 221.638489,244.555069 220.505508,245.392960 
	C220.951355,244.695847 221.709137,243.879837 222.873749,243.090454 
z"/>
<path fill="#0C0C0C" opacity="1.000000" stroke="none" 
	d="
M312.944336,83.001450 
	C312.240784,82.535286 311.554993,81.660713 310.764465,80.462555 
	C311.427185,80.957008 312.194611,81.775032 312.944336,83.001450 
z"/>
<path fill="#0C0C0C" opacity="1.000000" stroke="none" 
	d="
M128.847076,293.790405 
	C128.526123,294.312866 128.046539,294.607941 127.278107,294.860168 
	C127.555656,294.399231 128.122040,293.981110 128.847076,293.790405 
z"/>
<path fill="#0C0C0C" opacity="1.000000" stroke="none" 
	d="
M109.995499,293.877075 
	C110.391006,293.399292 110.912651,293.199188 111.720535,293.060822 
	C111.378395,293.466614 110.750008,293.810669 109.995499,293.877075 
z"/>
<path fill="#0C0C0C" opacity="1.000000" stroke="none" 
	d="
M44.931034,294.852173 
	C44.401588,294.909271 43.864471,294.667816 43.176315,294.166260 
	C43.657970,294.122009 44.290668,294.337799 44.931034,294.852173 
z"/>
<path fill="#0C0C0C" opacity="1.000000" stroke="none" 
	d="
M172.187836,269.255371 
	C172.467606,268.677856 172.925217,268.323486 173.682770,267.961548 
	C173.443726,268.462189 172.904709,268.970367 172.187836,269.255371 
z"/>
<path fill="#0C0C0C" opacity="1.000000" stroke="none" 
	d="
M219.241348,239.340240 
	C219.464386,238.723526 219.890320,238.315598 220.606628,237.829117 
	C220.412750,238.350067 219.928497,238.949539 219.241348,239.340240 
z"/>
<path fill="#0C0C0C" opacity="1.000000" stroke="none" 
	d="
M316.243896,89.829575 
	C315.708496,89.518860 315.395233,89.044525 315.113403,88.280983 
	C315.585236,88.549843 316.025635,89.107903 316.243896,89.829575 
z"/>
<path fill="#F0F0F0" opacity="1.000000" stroke="none" 
	d="
M264.377686,214.105453 
	C264.550201,213.511276 265.018097,212.827972 265.836975,212.143311 
	C265.683014,212.766724 265.178040,213.391525 264.377686,214.105453 
z"/>
<path fill="#0C0C0C" opacity="1.000000" stroke="none" 
	d="
M180.538940,265.957428 
	C180.308380,266.048676 180.343277,265.986389 180.307220,265.966431 
	C180.437271,265.919739 180.603394,265.892975 180.538940,265.957428 
z"/>
<path fill="#0C0C0C" opacity="1.000000" stroke="none" 
	d="
M241.486298,227.715942 
	C241.689621,228.138733 241.490845,228.368820 241.108139,228.735809 
	C241.000885,228.443054 241.054214,227.993240 241.486298,227.715942 
z"/>
</svg>